<?xml version="1.0"?>
<svg xmlns="http://www.w3.org/2000/svg" height="512px" viewBox="0 0 46 60" width="512px" class=""><g><g id="Page-1" fill="none" fill-rule="evenodd"><g id="003---Diet-Plan" fill="rgb(0,0,0)" fill-rule="nonzero"><path id="Shape" d="m3 60h36c1.6568542 0 3-1.3431458 3-3v-1h1c1.6568542 0 3-1.3431458 3-3v-50c0-1.65685425-1.3431458-3-3-3h-36c-1.65685425 0-3 1.34314575-3 3v1h-1c-1.65685425 0-3 1.34314575-3 3v50c0 1.6568542 1.34314575 3 3 3zm3-57c0-.55228475.44771525-1 1-1h36c.5522847 0 1 .44771525 1 1v50c0 .5522847-.4477153 1-1 1h-36c-.55228475 0-1-.4477153-1-1zm-4 4c0-.55228475.44771525-1 1-1h1v47c0 1.6568542 1.34314575 3 3 3h33v1c0 .5522847-.4477153 1-1 1h-36c-.55228475 0-1-.4477153-1-1z" data-original="#000000" class="active-path" data-old_color="#000000" fill="#FFFFFF"/><path id="Shape" d="m11 16h1c3.3137085 0 6-2.6862915 6-6s-2.6862915-6-6-6h-1c-1.1045695 0-2 .8954305-2 2v8c0 1.1045695.8954305 2 2 2zm0-10h1c2.209139 0 4 1.790861 4 4s-1.790861 4-4 4h-1z" data-original="#000000" class="active-path" data-old_color="#000000" fill="#FFFFFF"/><path id="Shape" d="m21 16c.5522847 0 1-.4477153 1-1v-10c0-.55228475-.4477153-1-1-1s-1 .44771525-1 1v10c0 .5522847.4477153 1 1 1z" data-original="#000000" class="active-path" data-old_color="#000000" fill="#FFFFFF"/><path id="Shape" d="m25 16h5c.5522847 0 1-.4477153 1-1s-.4477153-1-1-1h-4v-3h4c.5522847 0 1-.4477153 1-1 0-.55228475-.4477153-1-1-1h-4v-3h4c.5522847 0 1-.44771525 1-1s-.4477153-1-1-1h-5c-.5522847 0-1 .44771525-1 1v10c0 .5522847.4477153 1 1 1z" data-original="#000000" class="active-path" data-old_color="#000000" fill="#FFFFFF"/><path id="Shape" d="m33 6h3v9c0 .5522847.4477153 1 1 1s1-.4477153 1-1v-9h3c.5522847 0 1-.44771525 1-1s-.4477153-1-1-1h-8c-.5522847 0-1 .44771525-1 1s.4477153 1 1 1z" data-original="#000000" class="active-path" data-old_color="#000000" fill="#FFFFFF"/><path id="Shape" d="m35 28h4c1.6568542 0 3-1.3431458 3-3v-4c0-1.6568542-1.3431458-3-3-3h-4c-1.6568542 0-3 1.3431458-3 3v4c0 1.6568542 1.3431458 3 3 3zm4-2h-3.586l4.586-4.586v3.586c0 .5522847-.4477153 1-1 1zm-4-6h3.586l-4.586 4.586v-3.586c0-.5522847.4477153-1 1-1z" data-original="#000000" class="active-path" data-old_color="#000000" fill="#FFFFFF"/><path id="Shape" d="m35 40h4c1.6568542 0 3-1.3431458 3-3v-4c0-1.6568542-1.3431458-3-3-3h-4c-1.6568542 0-3 1.3431458-3 3v4c0 1.6568542 1.3431458 3 3 3zm-1-7c0-.5522847.4477153-1 1-1h4c.5522847 0 1 .4477153 1 1v4c0 .5522847-.4477153 1-1 1h-4c-.5522847 0-1-.4477153-1-1z" data-original="#000000" class="active-path" data-old_color="#000000" fill="#FFFFFF"/><path id="Shape" d="m35 52h4c1.6568542 0 3-1.3431458 3-3v-4c0-1.6568542-1.3431458-3-3-3h-4c-1.6568542 0-3 1.3431458-3 3v4c0 1.6568542 1.3431458 3 3 3zm-1-7c0-.5522847.4477153-1 1-1h4c.5522847 0 1 .4477153 1 1v4c0 .5522847-.4477153 1-1 1h-4c-.5522847 0-1-.4477153-1-1z" data-original="#000000" class="active-path" data-old_color="#000000" fill="#FFFFFF"/><path id="Shape" d="m10 22h19c.5522847 0 1-.4477153 1-1s-.4477153-1-1-1h-19c-.55228475 0-1 .4477153-1 1s.44771525 1 1 1z" data-original="#000000" class="active-path" data-old_color="#000000" fill="#FFFFFF"/><path id="Shape" d="m10 26h10c.5522847 0 1-.4477153 1-1s-.4477153-1-1-1h-10c-.55228475 0-1 .4477153-1 1s.44771525 1 1 1z" data-original="#000000" class="active-path" data-old_color="#000000" fill="#FFFFFF"/><path id="Shape" d="m10 34h19c.5522847 0 1-.4477153 1-1s-.4477153-1-1-1h-19c-.55228475 0-1 .4477153-1 1s.44771525 1 1 1z" data-original="#000000" class="active-path" data-old_color="#000000" fill="#FFFFFF"/><path id="Shape" d="m10 38h10c.5522847 0 1-.4477153 1-1s-.4477153-1-1-1h-10c-.55228475 0-1 .4477153-1 1s.44771525 1 1 1z" data-original="#000000" class="active-path" data-old_color="#000000" fill="#FFFFFF"/><path id="Shape" d="m10 46h19c.5522847 0 1-.4477153 1-1s-.4477153-1-1-1h-19c-.55228475 0-1 .4477153-1 1s.44771525 1 1 1z" data-original="#000000" class="active-path" data-old_color="#000000" fill="#FFFFFF"/><path id="Shape" d="m10 50h10c.5522847 0 1-.4477153 1-1s-.4477153-1-1-1h-10c-.55228475 0-1 .4477153-1 1s.44771525 1 1 1z" data-original="#000000" class="active-path" data-old_color="#000000" fill="#FFFFFF"/></g></g></g> </svg>
