<?xml version="1.0"?>
<svg xmlns="http://www.w3.org/2000/svg" id="Outline-Expanded" enable-background="new 0 0 64 64" height="512px" viewBox="0 0 64 64" width="512px"><g><circle cx="20" cy="28" r="2" data-original="#000000" class="active-path" data-old_color="#000000" fill="#FFFFFF"/><circle cx="32" cy="28" r="2" data-original="#000000" class="active-path" data-old_color="#000000" fill="#FFFFFF"/><path d="m26 37c-1.813 0-3.507-.839-4.77-2.362l1.539-1.276c.877 1.056 2.024 1.638 3.231 1.638s2.354-.582 3.23-1.638l1.539 1.276c-1.262 1.523-2.956 2.362-4.769 2.362z" data-original="#000000" class="active-path" data-old_color="#000000" fill="#FFFFFF"/><path d="m61 29c-2.76 0-5 2.24-5 5v1h-4c-1.65 0-3 1.35-3 3 0 .77.29 1.47.77 2-.48.53-.77 1.23-.77 2s.29 1.47.77 2c-.48.53-.77 1.23-.77 2s.29 1.47.77 2c-.43.48-.71 1.09-.76 1.76-.42-1.31-.97-2.54-1.64-3.75-1.55-2.79-2.37-5.96-2.37-9.16v-14.85c0-10.48-8.52-19-19-19s-19 8.52-19 19v14.85c0 3.2-.82 6.37-2.37 9.16-1.72 3.1-2.63 6.6-2.63 10.14v4.85c0 .55.45 1 1 1h46c.55 0 1-.45 1-1v-4.85c0-1.5-.17-3-.48-4.46.54.79 1.45 1.31 2.48 1.31h1v8c0 .55.45 1 1 1h7c.55 0 1-.45 1-1v-31c0-.55-.45-1-1-1zm-15.37 17.99c1.11 1.99 1.84 4.18 2.17 6.44-1.2-1.38-2.84-2.4-4.74-2.85l-10.06-2.37v-3.95c4.5-2.38 7.65-6.99 7.97-12.35.75-.15 1.44-.47 2.03-.91v5.85c0 3.54.91 7.04 2.63 10.14zm-15.98-30.85c2.24 5.43 7.31 7.18 9.35 7.67v7.19c0 7.17-5.83 13-13 13s-13-5.83-13-13v-7.04c2.88-.2 11.26-1.32 16.65-7.82zm-16.65 5.8c.03-7.14 5.85-12.94 13-12.94 7.09 0 12.87 5.7 12.99 12.76-2.13-.58-6.63-2.45-8.02-8-.1-.39-.41-.68-.8-.75-.39-.06-.78.11-1 .44-4.65 6.96-13.25 8.26-16.17 8.49zm28 7.88v-5.64c1.16.41 2 1.52 2 2.82s-.84 2.41-2 2.82zm-32-7.82c0-9.37 7.63-17 17-17s17 7.63 17 17v1c-.58-.44-1.26-.75-2-.9v-.1c0-8.27-6.73-15-15-15s-15 6.73-15 15v.1c-.74.15-1.42.46-2 .9zm2 2.18v5.64c-1.16-.41-2-1.52-2-2.82s.84-2.41 2-2.82zm-4.63 22.81c1.72-3.1 2.63-6.6 2.63-10.14v-5.85c.59.44 1.28.76 2.03.91.32 5.36 3.47 9.97 7.97 12.35v3.95l-10.06 2.37c-1.9.45-3.54 1.47-4.74 2.85.33-2.26 1.06-4.45 2.17-6.44zm-2.37 13.01v-.66c0-3.27 2.22-6.07 5.4-6.82l2.19-.51 2.27 2.26-.81 2.41c-.16.49.07 1.02.54 1.23l4.7 2.09zm11.24-3.54.71-2.14c.12-.36.02-.76-.24-1.03l-1.83-1.83 5.39-1.26 2.26 9.05zm12.98 3.54h-4.44l-1.23-4.91c1.04.6 2.22.91 3.45.91s2.42-.32 3.45-.92zm-2.22-6c-1.34 0-2.59-.52-3.54-1.48-.31-.3-.59-.66-.81-1.05l-.01-.01-.64-2.58v-3.74c1.56.56 3.24.86 5 .86s3.44-.3 5-.86v3.74l-.64 2.56c-.88 1.59-2.55 2.56-4.36 2.56zm6.73-3.8 5.39 1.26-1.83 1.83c-.26.27-.36.67-.24 1.03l.71 2.14-6.29 2.79zm15.27 9.8h-14.29l4.7-2.09c.47-.21.7-.74.54-1.23l-.81-2.41 2.27-2.26 2.19.51c3.18.75 5.4 3.55 5.4 6.82zm12 0h-5v-8c0-.55-.45-1-1-1h-2c-.55 0-1-.45-1-1s.45-1 1-1 1-.45 1-1-.45-1-1-1-1-.45-1-1 .45-1 1-1 1-.45 1-1-.45-1-1-1-1-.45-1-1 .45-1 1-1 1-.45 1-1-.45-1-1-1-1-.45-1-1 .45-1 1-1h5c.55 0 1-.45 1-1v-2c0-1.3.84-2.42 2-2.83z" data-original="#000000" class="active-path" data-old_color="#000000" fill="#FFFFFF"/></g> </svg>
